<svg xmlns="http://www.w3.org/2000/svg" fill="none" viewBox="0 0 128 128">
    <path d="M50.4 78.5a75.1 75.1 0 0 0-28.5 6.9l24.2-65.7c.7-2 1.9-3.2 3.4-3.2h29c1.5 0 2.7 1.2 3.4 3.2l24.2 65.7s-11.6-7-28.5-7L67 45.5c-.4-1.7-1.6-2.8-2.9-2.8-1.3 0-2.5 1.1-2.9 2.7L50.4 78.5Zm-1.1 28.2Zm-4.2-20.2c-15 4-25 8-25 8s15.4-37 19-45.5c-2 0-3.8 1.3-4.7 3.4L10.2 89.9c-1 2.5-.2 5.8 1.7 7.2 8.3 6.2 33.8 17.5 33.8 17.5-.6-2-1.6-5.3-.6-7.9ZM121 89.9 96.9 54.4c-1-2-2.7-3.4-4.8-3.4 3.6 8.4 19.1 45.5 19.1 45.5s-10-4-25-8c1 2.6 0 5.8-.7 7.9 0 0 25.5-11.3 33.9-17.5 2-1.4 2.7-4.7 1.6-7.2Z" fill="url(#a)"/>
    <defs>
        <linearGradient id="a" x1="64" y1="16.5" x2="64" y2="112.5" gradientUnits="userSpaceOnUse">
            <stop stop-color="#8839ef"/>
            <stop offset="1" stop-color="#fe640b"/>
        </linearGradient>
    </defs>
</svg>
